<svg width="32" height="43" viewBox="0 0 32 43" fill="none" xmlns="http://www.w3.org/2000/svg">
<path fill-rule="evenodd" clip-rule="evenodd" d="M3.56983e-07 41.3334V5.33336C3.56983e-07 4.27852 0.312795 3.24738 0.898829 2.37031C1.48486 1.49325 2.31782 0.809666 3.29236 0.405998C4.2669 0.00233103 6.4 0 7.46667 0C8.56604 0 8.88889 2.0006e-05 8.88889 2.0006e-05C9.79868 0.0033689 9.24444 2.0006e-05 9.24444 2.0006e-05H9.6C9.6 2.0006e-05 8.88889 1.96669e-05 10.3111 2.0006e-05C10.3111 2.0006e-05 11.0104 2.0006e-05 9.95556 2.0006e-05L23.1111 0.102501L24.1778 0.102501H24.5333H24.8889H25.2444L25.6262 0.102501C25.6262 0.102501 27.7331 0.00233103 28.7076 0.405998C29.6822 0.809666 30.5151 1.49325 31.1012 2.37031C31.6872 3.24738 32 4.27852 32 5.33336V41.3334C32.0002 41.5649 31.94 41.7925 31.8255 41.9937C31.711 42.195 31.5461 42.3629 31.347 42.4811C31.1478 42.5992 30.9214 42.6634 30.6899 42.6675C30.4583 42.6715 30.2298 42.6152 30.0267 42.504L16 34.8507L1.97333 42.504C1.77021 42.6152 1.54165 42.6715 1.31015 42.6675C1.07864 42.6634 0.852179 42.5992 0.653045 42.4811C0.453911 42.3629 0.288972 42.195 0.174466 41.9937C0.0599587 41.7925 -0.00016905 41.5649 3.56983e-07 41.3334ZM16.4267 10.9334C16.3877 10.8534 16.327 10.786 16.2516 10.7388C16.1761 10.6917 16.089 10.6667 16 10.6667C15.911 10.6667 15.8239 10.6917 15.7484 10.7388C15.673 10.786 15.6123 10.8534 15.5733 10.9334L13.8827 14.36C13.8488 14.4293 13.7986 14.4894 13.7363 14.5349C13.6741 14.5804 13.6016 14.6101 13.5253 14.6214L9.73867 15.1707C9.65149 15.1839 9.56973 15.2212 9.50254 15.2783C9.43535 15.3353 9.38538 15.41 9.35825 15.4939C9.33111 15.5778 9.32788 15.6676 9.34892 15.7532C9.36995 15.8388 9.41442 15.9169 9.47733 15.9787L12.2133 18.648C12.3253 18.7574 12.376 18.9147 12.3493 19.0694L11.7067 22.84C11.6922 22.9271 11.7022 23.0165 11.7357 23.0981C11.7692 23.1798 11.8249 23.2505 11.8963 23.3023C11.9678 23.3541 12.0523 23.3849 12.1403 23.3914C12.2284 23.3978 12.3164 23.3796 12.3947 23.3387L15.7813 21.5574C15.8492 21.5218 15.9247 21.5033 16.0013 21.5033C16.078 21.5033 16.1534 21.5218 16.2213 21.5574L19.608 23.3387C19.6862 23.3788 19.7739 23.3965 19.8615 23.3897C19.9491 23.3829 20.0331 23.352 20.1041 23.3003C20.1752 23.2486 20.2305 23.1782 20.2639 23.0969C20.2973 23.0157 20.3075 22.9267 20.2933 22.84L19.648 19.0667C19.6344 18.9909 19.6394 18.913 19.6626 18.8396C19.6859 18.7662 19.7266 18.6995 19.7813 18.6454L22.5227 15.976C22.5856 15.9143 22.63 15.8362 22.6511 15.7506C22.6721 15.6649 22.6689 15.5751 22.6418 15.4912C22.6146 15.4074 22.5647 15.3327 22.4975 15.2756C22.4303 15.2185 22.3485 15.1812 22.2613 15.168L18.4747 14.6187C18.3984 14.6074 18.3259 14.5778 18.2637 14.5322C18.2014 14.4867 18.1512 14.4267 18.1173 14.3574L16.4267 10.9334Z" fill="white"/>
</svg>
