<svg width="100" height="103" viewBox="0 0 100 103" fill="none" xmlns="http://www.w3.org/2000/svg">
<path d="M32.2924 57.5219C30.6108 57.5219 28.5408 57.1511 26.5446 55.8134C21.533 52.455 21.9985 46.2639 22.0207 46.0019C22.35 42.1327 24.8039 39.4769 25.8438 38.5145C29.9764 34.6906 35.0579 35.43 40.9418 36.2859C46.5235 37.098 52.8499 38.0184 60.3094 35.5436C63.0229 34.6431 68.0736 32.9673 71.6347 28.1508C75.1907 23.3411 75.5961 17.8156 75.31 14.0277C75.2543 13.2891 75.8077 12.6452 76.5465 12.5894C77.2854 12.5334 77.9291 13.0872 77.9847 13.8258C78.2471 17.2983 78.0511 23.9842 73.7916 29.7455C69.7252 35.2455 63.9363 37.1662 61.1541 38.0894C53.0921 40.7642 46.141 39.7528 40.5557 38.9405C34.9258 38.1214 30.858 37.5294 27.6657 40.4834C26.8552 41.2333 24.9432 43.2948 24.6933 46.2294C24.6893 46.2778 24.3247 51.0972 28.0377 53.5852C30.9218 55.518 34.1511 54.6772 34.7691 54.4894C35.4782 54.2736 36.2271 54.6734 36.4427 55.3819C36.6583 56.0906 36.2586 56.8397 35.55 57.0553C35.0036 57.2217 33.8052 57.5219 32.2924 57.5219Z" fill="#E6E6E6"/>
<path d="M50.3413 32.6678C49.6006 32.6678 49 32.0675 49 31.3266V27.0033C49 26.2623 49.6005 25.662 50.3413 25.662C51.0819 25.662 51.6825 26.2623 51.6825 27.0033V31.3266C51.6823 32.0675 51.0819 32.6678 50.3413 32.6678Z" fill="#FFDB6C"/>
<path d="M67.8809 83.9198H31.9727C29.2263 83.9198 27 86.1462 27 88.8925C27 89.5016 27.4984 90 28.1075 90H71.7464C72.3555 90 72.8539 89.5016 72.8539 88.8925C72.8537 86.1462 70.6273 83.9198 67.8809 83.9198Z" fill="#634E9B"/>
<path d="M38.6977 83.9206C36.3964 81.3134 35 77.8887 35 74.1378C35 65.9698 41.6214 59.3487 49.7891 59.3487C57.9567 59.3487 64.5781 65.9701 64.5781 74.1378C64.5781 77.8887 63.1819 81.3134 60.8805 83.9204" fill="#FFDB6C"/>
<path d="M48.0917 59.3486C47.0731 59.3486 46.0786 59.4517 45.1178 59.6478C51.8603 61.0242 56.9333 66.9886 56.9333 74.1378C56.9333 77.8888 55.537 81.3134 53.2356 83.9205H37L59.1833 83.9203C61.4844 81.3131 62.8809 77.8884 62.8809 74.1377C62.8809 65.97 56.2597 59.3486 48.0917 59.3486Z" fill="#FFB04C"/>
<path d="M56.2002 59.3486H44.5766C42.6013 59.3486 41 57.7473 41 55.772C41 53.7967 42.6013 52.1954 44.5766 52.1954H56.2003C58.1756 52.1954 59.7769 53.7967 59.7769 55.772C59.7766 57.7473 58.1753 59.3486 56.2002 59.3486Z" fill="#6EAECD"/>
<path d="M50.4111 52.1954H46C47.9753 52.1954 49.5766 53.7967 49.5766 55.772C49.5766 57.7473 47.9753 59.3486 46 59.3486H50.4111C52.3864 59.3486 53.9877 57.7473 53.9877 55.772C53.9877 53.7968 52.3864 52.1954 50.4111 52.1954Z" fill="#5388B4"/>
<path d="M58.4758 27.0034H41.5766C39.6012 27.0034 38 25.4022 38 23.4269V22.7458C38 22.3319 38.3355 21.9962 38.7495 21.9962H61.3028C61.7169 21.9962 62.0523 22.3317 62.0523 22.7458V23.4269C62.052 25.4022 60.4508 27.0034 58.4758 27.0034Z" fill="#634E9B"/>
<path d="M49.5766 21.9962V23.4269C49.5766 25.4022 47.9753 27.0034 46 27.0034H50.5748C52.5502 27.0034 54.1514 25.4022 54.1514 23.4269V22.7458C54.1514 22.3319 53.8159 21.9962 53.4019 21.9962H49.5766Z" fill="#4C3A7A"/>
<path d="M44 52.1955C44 48.8869 46.682 46.2048 49.9906 46.2048C53.2992 46.2048 55.9813 48.8869 55.9813 52.1955" fill="#EE3446"/>
<path d="M47.8442 46.2048C47.2006 46.2048 46.5811 46.3075 46 46.4955C48.4059 47.2734 50.1466 49.5306 50.1466 52.1956H53.8348C53.835 48.887 51.153 46.2048 47.8442 46.2048Z" fill="#BA2C53"/>
<path d="M49.732 46.2052C51.7932 46.2052 53.4641 44.5343 53.4641 42.4731C53.4641 40.412 51.7932 38.7411 49.732 38.7411C47.6709 38.7411 46 40.412 46 42.4731C46 44.5343 47.6709 46.2052 49.732 46.2052Z" fill="#42A555"/>
<path d="M49.8142 38.7409C51.8754 38.7409 53.5462 37.07 53.5462 35.0089C53.5462 32.9477 51.8754 31.2769 49.8142 31.2769C47.7531 31.2769 46.0822 32.9477 46.0822 35.0089C46.0822 37.07 47.7531 38.7409 49.8142 38.7409Z" fill="#42A555"/>
<path d="M48.4642 38.7406C47.9444 38.7406 47.4497 38.8474 47 39.0394C48.3333 39.6088 49.2681 40.9314 49.2681 42.4728C49.2681 44.0142 48.3334 45.3369 47 45.9063C47.4495 46.0983 47.9444 46.205 48.4642 46.205C50.5253 46.205 52.1963 44.5341 52.1963 42.4727C52.1964 40.4116 50.5255 38.7406 48.4642 38.7406Z" fill="#427451"/>
<path d="M48.5455 31.2762C48.0256 31.2762 47.5309 31.383 47.0812 31.575C48.4145 32.1444 49.3494 33.467 49.3494 35.0084C49.3494 36.5498 48.4147 37.8725 47.0812 38.4417C47.5308 38.6337 48.0256 38.7405 48.5455 38.7405C50.6065 38.7405 52.2775 37.0695 52.2775 35.0084C52.2776 32.9472 50.6067 31.2762 48.5455 31.2762Z" fill="#427451"/>
<path d="M54.2186 21.9963H46.7543L43.0725 11.6498C42.7863 10.8453 43.3827 10 44.2366 10H56.2611C57.0936 10 57.6879 10.8064 57.4411 11.6014L54.2186 21.9963Z" fill="#FFDB6C"/>
<path d="M49.7191 10L46 21.9963H49.972L53.1947 11.6013C53.4413 10.8064 52.847 10 52.0145 10H49.7191Z" fill="#FFB04C"/>
<path d="M51.3744 83.9198H44C46.7273 83.9198 48.9383 86.1306 48.9383 88.8581V90H55.2398C55.8514 90 56.3473 89.5041 56.3473 88.8925C56.3472 86.1462 54.1208 83.9198 51.3744 83.9198Z" fill="#4C3A7A"/>
<path d="M22.7387 102H21.3251L15.9564 93.7822V102H14.5429V91.3359H15.9564L21.3397 99.5903V91.3359H22.7387V102ZM29.8361 99.9565H26.0275L25.2219 102H23.8376L27.3459 93.4673H28.5617L32.0187 102H30.6418L29.8361 99.9565ZM26.467 98.8506H29.404L27.9465 95.1226L26.467 98.8506ZM39.6655 100.901C39.3433 101.307 38.8965 101.612 38.3252 101.817C37.7588 102.017 37.1069 102.117 36.3696 102.117C35.2075 102.117 34.2749 101.753 33.5718 101.026C32.8687 100.298 32.5122 99.3193 32.5024 98.0889V97.4297C32.5024 96.1504 32.8271 95.1519 33.4766 94.4341C34.1309 93.7114 35.0488 93.3501 36.2305 93.3501C37.207 93.3501 37.9907 93.5796 38.5815 94.0386C39.1724 94.4976 39.5337 95.1689 39.6655 96.0527H38.3179C38.1323 94.9932 37.4414 94.4634 36.2451 94.4634C35.4687 94.4634 34.8779 94.7148 34.4727 95.2178C34.0674 95.7207 33.8647 96.458 33.8647 97.4297V98.0449C33.8647 98.9727 34.0894 99.7002 34.5386 100.228C34.9927 100.75 35.6103 101.011 36.3916 101.011C37.2803 101.011 37.9224 100.831 38.3179 100.469V98.7261H36.2598V97.6714H39.6655V100.901ZM46.1185 99.8174C46.1185 99.4268 45.9695 99.124 45.6717 98.9092C45.3787 98.6943 44.8733 98.4966 44.1556 98.3159C43.4378 98.1353 42.8689 97.9399 42.449 97.73C41.4969 97.2515 41.0208 96.5752 41.0208 95.7012C41.0208 95.0029 41.3162 94.4365 41.907 94.002C42.5027 93.5674 43.2669 93.3501 44.1995 93.3501C45.1565 93.3501 45.9378 93.5942 46.5433 94.0825C47.1536 94.5708 47.4588 95.1958 47.4588 95.9575H46.1038C46.1038 95.479 45.9305 95.1104 45.5838 94.8516C45.242 94.5879 44.7757 94.4561 44.1849 94.4561C43.6331 94.4561 43.1937 94.5659 42.8665 94.7856C42.5394 95.0005 42.3758 95.3032 42.3758 95.6938C42.3758 96.0112 42.5247 96.2773 42.8226 96.4922C43.1253 96.707 43.6575 96.9121 44.4192 97.1074C45.181 97.3027 45.7767 97.5249 46.2063 97.7739C46.636 98.0181 46.9559 98.3062 47.1658 98.6382C47.3758 98.9702 47.4808 99.3584 47.4808 99.8027C47.4808 100.521 47.1829 101.087 46.5872 101.502C45.9964 101.912 45.2151 102.117 44.2435 102.117C43.2327 102.117 42.3929 101.871 41.7239 101.377C41.0599 100.879 40.7278 100.235 40.7278 99.4438H42.0901C42.0901 99.9419 42.2781 100.33 42.6541 100.608C43.0301 100.887 43.5599 101.026 44.2435 101.026C44.8587 101.026 45.325 100.916 45.6424 100.696C45.9598 100.472 46.1185 100.179 46.1185 99.8174ZM54.1464 91.3359L57.6327 100.037L61.119 91.3359H62.9428V102H61.5365V97.8472L61.6684 93.3647L58.1674 102H57.0907L53.5971 93.3867L53.7362 97.8472V102H52.33V91.3359H54.1464ZM70.0256 99.9565H66.217L65.4113 102H64.0271L67.5354 93.4673H68.7512L72.2082 102H70.8312L70.0256 99.9565ZM66.6564 98.8506H69.5935L68.1359 95.1226L66.6564 98.8506ZM80.2139 102H78.8662L74.4351 95.584V102H73.0801V93.4673H74.4351L78.8662 99.8906V93.4673H80.2139V102ZM83.4075 102H82.0452V93.4673H83.4075V102ZM90.3512 99.9565H86.5426L85.7369 102H84.3526L87.8609 93.4673H89.0768L92.5338 102H91.1568L90.3512 99.9565ZM86.982 98.8506H89.919L88.4615 95.1226L86.982 98.8506Z" fill="#4C3A7A"/>
</svg>
