<svg width="32" height="32" viewBox="0 0 32 32" fill="#FFF" xmlns="http://www.w3.org/2000/svg">
<path d="M26.5391 0.209244L12.8653 4.39263C11.2087 4.86524 9.8659 6.59324 9.8659 8.24986V22.6732C9.8659 22.6732 8.87513 22.0049 6.66836 22.3176C3.42774 22.7779 0.800049 25.2652 0.800049 27.8745C0.800049 30.4837 3.42774 32.0825 6.66836 31.6222C9.91143 31.1643 12.288 28.7532 12.288 26.1428V13.8277C12.288 12.6708 13.6788 12.1748 13.6788 12.1748L25.7687 8.38524C25.7687 8.38524 27.1065 7.93601 27.1065 9.17417V19.0659C27.1065 19.0659 25.8745 18.3569 23.6677 18.6252C20.4271 19.0179 17.7994 21.4536 17.7994 24.0616C17.7994 26.672 20.4271 28.3237 23.6677 27.9299C26.9108 27.5372 29.5385 25.1028 29.5385 22.4923V2.35324C29.5385 0.696629 28.1945 -0.263371 26.5391 0.209244Z"/>
</svg>
