<svg width="24" height="24" viewBox="0 0 24 24" fill="none" xmlns="http://www.w3.org/2000/svg">
<g clip-path="url(#clip0_105:598)">
<path d="M6.68781 14.2566C6.18334 14.2566 5.56234 14.1454 4.96347 13.7441C3.46 12.7365 3.59964 10.8792 3.6063 10.8006C3.70511 9.63985 4.44128 8.84311 4.75324 8.55441C5.99303 7.40724 7.51745 7.62905 9.28263 7.88583C10.9571 8.12944 12.8551 8.40558 15.0929 7.66313C15.907 7.39299 17.4222 6.89025 18.4905 5.44528C19.5573 4.00238 19.6789 2.34474 19.5931 1.20835C19.5764 0.986769 19.7424 0.793598 19.964 0.776863C20.1857 0.760082 20.3788 0.926207 20.3955 1.14778C20.4742 2.18953 20.4154 4.19532 19.1376 5.92369C17.9177 7.57369 16.181 8.14992 15.3463 8.42686C12.9277 9.22931 10.8424 8.92589 9.1668 8.68219C7.47785 8.43647 6.2575 8.25886 5.2998 9.14508C5.05666 9.37003 4.48305 9.9885 4.40809 10.8689C4.40688 10.8834 4.29752 12.3292 5.41141 13.0756C6.27663 13.6554 7.24544 13.4032 7.43083 13.3469C7.64355 13.2821 7.86822 13.4021 7.93291 13.6146C7.9976 13.8272 7.87769 14.052 7.66511 14.1166C7.50119 14.1666 7.14166 14.2566 6.68781 14.2566Z" fill="white"/>
<path d="M12.1023 6.80037C11.8801 6.80037 11.7 6.62028 11.7 6.398V5.10101C11.7 4.87873 11.8801 4.69864 12.1023 4.69864C12.3245 4.69864 12.5047 4.87873 12.5047 5.10101V6.398C12.5047 6.62028 12.3245 6.80037 12.1023 6.80037Z" fill="white"/>
<path d="M17.3644 22.176H6.59189C5.76797 22.176 5.1001 22.8439 5.1001 23.6678C5.1001 23.8505 5.24963 24 5.43235 24H18.524C18.7067 24 18.8563 23.8505 18.8563 23.6678C18.8562 22.8439 18.1883 22.176 17.3644 22.176Z" fill="white"/>
<path d="M8.6093 22.1762C7.91892 21.394 7.5 20.3666 7.5 19.2413C7.5 16.7909 9.48642 14.8046 11.9367 14.8046C14.387 14.8046 16.3734 16.791 16.3734 19.2413C16.3734 20.3666 15.9546 21.394 15.2641 22.1761" fill="white"/>
<path d="M11.4276 14.8045C11.122 14.8045 10.8237 14.8355 10.5354 14.8943C12.5582 15.3072 14.0801 17.0965 14.0801 19.2413C14.0801 20.3666 13.6612 21.394 12.9708 22.1761H8.1001L14.7551 22.176C15.4454 21.3939 15.8644 20.3665 15.8644 19.2413C15.8644 16.791 13.878 14.8045 11.4276 14.8045Z" fill="white"/>
<path d="M13.8601 14.8046H10.373C9.78042 14.8046 9.30005 14.3242 9.30005 13.7316C9.30005 13.139 9.78042 12.6587 10.373 12.6587H13.8601C14.4527 12.6587 14.9331 13.139 14.9331 13.7316C14.933 14.3242 14.4526 14.8046 13.8601 14.8046Z" fill="white"/>
<path d="M12.1234 12.6587H10.8C11.3926 12.6587 11.873 13.139 11.873 13.7316C11.873 14.3242 11.3926 14.8046 10.8 14.8046H12.1234C12.716 14.8046 13.1963 14.3242 13.1963 13.7316C13.1963 13.1391 12.716 12.6587 12.1234 12.6587Z" fill="white"/>
<path d="M14.5426 5.10106H9.47287C8.88028 5.10106 8.3999 4.62069 8.3999 4.02809V3.82377C8.3999 3.69959 8.50054 3.59891 8.62476 3.59891H15.3907C15.515 3.59891 15.6156 3.69955 15.6156 3.82377V4.02809C15.6155 4.62069 15.1351 5.10106 14.5426 5.10106Z" fill="white"/>
<path d="M11.873 3.59891V4.02809C11.873 4.62069 11.3926 5.10106 10.8 5.10106H12.1725C12.7651 5.10106 13.2455 4.62069 13.2455 4.02809V3.82377C13.2455 3.69959 13.1448 3.59891 13.0206 3.59891H11.873V3.59891Z" fill="white"/>
<path d="M10.2 12.6587C10.2 11.6661 11.0046 10.8615 11.9971 10.8615C12.9897 10.8615 13.7943 11.6661 13.7943 12.6587" fill="white"/>
<path d="M11.3533 10.8615C11.1602 10.8615 10.9744 10.8923 10.8 10.9487C11.5218 11.1821 12.044 11.8592 12.044 12.6587H13.1505C13.1505 11.6661 12.3459 10.8615 11.3533 10.8615Z" fill="white"/>
<path d="M11.9197 10.8615C12.538 10.8615 13.0393 10.3603 13.0393 9.74192C13.0393 9.12358 12.538 8.62231 11.9197 8.62231C11.3013 8.62231 10.8 9.12358 10.8 9.74192C10.8 10.3603 11.3013 10.8615 11.9197 10.8615Z" fill="white"/>
<path d="M11.9443 8.62228C12.5627 8.62228 13.0639 8.12101 13.0639 7.50267C13.0639 6.88432 12.5627 6.38306 11.9443 6.38306C11.326 6.38306 10.8247 6.88432 10.8247 7.50267C10.8247 8.12101 11.326 8.62228 11.9443 8.62228Z" fill="white"/>
<path d="M11.5394 8.62222C11.3834 8.62222 11.235 8.65424 11.1001 8.71185C11.5001 8.88266 11.7805 9.27946 11.7805 9.74188C11.7805 10.2043 11.5001 10.6011 11.1001 10.7719C11.235 10.8295 11.3834 10.8615 11.5394 10.8615C12.1577 10.8615 12.659 10.3603 12.659 9.74183C12.659 9.1235 12.1577 8.62222 11.5394 8.62222Z" fill="white"/>
<path d="M11.5638 6.38287C11.4078 6.38287 11.2594 6.41489 11.1245 6.4725C11.5245 6.64331 11.8049 7.04011 11.8049 7.50253C11.8049 7.96495 11.5245 8.36175 11.1245 8.53251C11.2594 8.59012 11.4078 8.62214 11.5638 8.62214C12.1821 8.62214 12.6834 8.12086 12.6834 7.50253C12.6834 6.88415 12.1822 6.38287 11.5638 6.38287Z" fill="white"/>
<path d="M13.2655 3.59888H11.0262L9.92167 0.494953C9.83579 0.253594 10.0147 0 10.2709 0H13.8782C14.128 0 14.3063 0.241922 14.2322 0.480422L13.2655 3.59888Z" fill="white"/>
<path d="M11.9158 0L10.8 3.59888H11.9917L12.9585 0.480375C13.0324 0.241922 12.8542 0 12.6044 0H11.9158Z" fill="white"/>
<path d="M12.4123 22.176H10.2C11.0182 22.176 11.6814 22.8392 11.6814 23.6575V24H13.5719C13.7554 24 13.9042 23.8512 13.9042 23.6678C13.9041 22.8439 13.2362 22.176 12.4123 22.176Z" fill="white"/>
</g>
<defs>
<clipPath id="clip0_105:598">
<rect width="24" height="24" fill="white"/>
</clipPath>
</defs>
</svg>
