<svg width="24" height="24" viewBox="0 0 24 24" fill="none" xmlns="http://www.w3.org/2000/svg">
<path d="M13.4884 0C7.68283 0 2.97596 4.59304 2.97596 10.2592C2.97596 12.2724 3.56995 14.1504 4.59654 15.735C4.589 15.7382 4.5816 15.7411 4.57404 15.7444L0 20.2078L3.8855 24L8.62428 19.3742C8.62286 19.3677 8.62096 19.3612 8.61948 19.3547C10.0751 20.0985 11.7315 20.5191 13.4884 20.5191C19.294 20.5191 24 15.9253 24 10.2592C23.9999 4.59304 19.2939 0 13.4884 0ZM13.4884 4.55754C16.7147 4.55754 19.3295 7.11032 19.3295 10.2592C19.3295 13.408 16.7147 15.9608 13.4884 15.9608C10.2621 15.9608 7.64646 13.408 7.64646 10.2592C7.64646 7.11032 10.262 4.55754 13.4884 4.55754Z" fill="#C4C4C4"/>
</svg>
