<svg width="30" height="31" viewBox="0 0 30 31" fill="none" xmlns="http://www.w3.org/2000/svg">
<path d="M12.2517 24.5035C14.8964 24.5035 17.3659 23.6431 19.3733 22.2092L26.9251 29.761C27.2756 30.1115 27.7377 30.2868 28.2156 30.2868C29.2512 30.2868 30 29.4902 30 28.4705C30 27.9926 29.8407 27.5465 29.4902 27.196L21.9862 19.676C23.5635 17.6049 24.5035 15.0398 24.5035 12.2517C24.5035 5.51248 18.991 0 12.2517 0C5.49655 0 0 5.51248 0 12.2517C0 18.991 5.49655 24.5035 12.2517 24.5035ZM12.2517 21.8587C6.97823 21.8587 2.64472 17.5093 2.64472 12.2517C2.64472 6.99416 6.97823 2.64472 12.2517 2.64472C17.5093 2.64472 21.8587 6.99416 21.8587 12.2517C21.8587 17.5093 17.5093 21.8587 12.2517 21.8587Z" fill="white"/>
</svg>
