<svg width="20" height="20" viewBox="0 0 20 20" fill="none" xmlns="http://www.w3.org/2000/svg">
<path d="M9.22815 2.19417C9.49482 1.49084 10.504 1.49084 10.7715 2.19417L12.4965 6.9725C12.6173 7.28917 12.9248 7.5 13.2682 7.5H17.5073C18.2907 7.5 18.6323 8.475 18.0165 8.9525L14.9998 11.6667C14.8647 11.7706 14.7659 11.9146 14.7177 12.0781C14.6695 12.2415 14.6743 12.4161 14.7315 12.5767L15.8332 17.2458C16.1015 17.9958 15.2332 18.64 14.5765 18.1783L10.479 15.5783C10.3387 15.4797 10.1713 15.4268 9.99982 15.4268C9.82831 15.4268 9.66098 15.4797 9.52065 15.5783L5.42315 18.1783C4.76732 18.64 3.89815 17.995 4.16649 17.2458L5.26815 12.5767C5.3253 12.4161 5.33012 12.2415 5.28191 12.0781C5.2337 11.9146 5.13495 11.7706 4.99982 11.6667L1.98315 8.9525C1.36649 8.475 1.70982 7.5 2.49149 7.5H6.73065C6.89756 7.50056 7.06071 7.45042 7.1985 7.35623C7.33629 7.26204 7.44224 7.12823 7.50232 6.9725L9.22732 2.19417H9.22815Z" stroke="white" stroke-width="2.5" stroke-linecap="round" stroke-linejoin="round"/>
</svg>
