<svg width="40" height="40" viewBox="0 0 40 40" fill="none" xmlns="http://www.w3.org/2000/svg">
<path d="M40 20C40 25.3043 37.8929 30.3914 34.1421 34.1421C30.3914 37.8929 25.3043 40 20 40C14.6957 40 9.60859 37.8929 5.85786 34.1421C2.10714 30.3914 0 25.3043 0 20C0 14.6957 2.10714 9.60859 5.85786 5.85786C9.60859 2.10714 14.6957 0 20 0C25.3043 0 30.3914 2.10714 34.1421 5.85786C37.8929 9.60859 40 14.6957 40 20V20ZM16.25 20C16.9917 20 17.7167 19.7801 18.3334 19.368C18.9501 18.956 19.4307 18.3703 19.7145 17.6851C19.9984 16.9998 20.0726 16.2458 19.9279 15.5184C19.7833 14.791 19.4261 14.1228 18.9017 13.5983C18.3772 13.0739 17.709 12.7167 16.9816 12.5721C16.2542 12.4274 15.5002 12.5016 14.8149 12.7855C14.1297 13.0693 13.544 13.5499 13.132 14.1666C12.7199 14.7833 12.5 15.5083 12.5 16.25V23.75C12.5 24.7446 12.8951 25.6984 13.5983 26.4017C14.3016 27.1049 15.2554 27.5 16.25 27.5H23.75C24.7446 27.5 25.6984 27.1049 26.4017 26.4017C27.1049 25.6984 27.5 24.7446 27.5 23.75V16.25C27.5 15.5083 27.2801 14.7833 26.868 14.1666C26.456 13.5499 25.8703 13.0693 25.1851 12.7855C24.4998 12.5016 23.7458 12.4274 23.0184 12.5721C22.291 12.7167 21.6228 13.0739 21.0983 13.5983C20.5739 14.1228 20.2167 14.791 20.0721 15.5184C19.9274 16.2458 20.0016 16.9998 20.2855 17.6851C20.5693 18.3703 21.0499 18.956 21.6666 19.368C22.2833 19.7801 23.0083 20 23.75 20L16.25 12.5V20Z" fill="black"/>
</svg>
