<svg width="20" height="24" viewBox="0 0 20 24" fill="none" xmlns="http://www.w3.org/2000/svg">
<path d="M13 14.5H7C3.416 14.5 0.5 17.416 0.5 21V22C0.5 22.2175 0.6405 22.41 0.8475 22.4765C0.9785 22.518 4.1145 23.5 10 23.5C15.8855 23.5 19.0215 22.518 19.1525 22.4765C19.3595 22.41 19.5 22.2175 19.5 22V21C19.5 17.416 16.584 14.5 13 14.5Z" fill="white"/>
<path d="M10 12.5C13.0975 12.5 15.5 9.006 15.5 6C15.5 2.9675 13.0325 0.5 10 0.5C6.9675 0.5 4.5 2.9675 4.5 6C4.5 9.006 6.9025 12.5 10 12.5Z" fill="white"/>
</svg>
