<svg width="32" height="29" viewBox="0 0 32 29" fill="#FFF" xmlns="http://www.w3.org/2000/svg">
<path d="M5.77778 1.24003e-08H26.2222C27.698 -9.66164e-05 29.1179 0.56454 30.1906 1.57808C31.2633 2.59162 31.9076 3.97723 31.9911 5.45067L32 5.77778V22.6667C32.0001 24.1425 31.4355 25.5624 30.4219 26.6351C29.4084 27.7078 28.0228 28.352 26.5493 28.4356L26.2222 28.4444H5.77778C4.30198 28.4445 2.88208 27.8799 1.80937 26.8664C0.736652 25.8528 0.0924421 24.4672 0.00888911 22.9938L1.24003e-08 22.6667V5.77778C-9.66164e-05 4.30198 0.564541 2.88208 1.57808 1.80937C2.59163 0.736652 3.97723 0.0924421 5.45067 0.0088891L5.77778 1.24003e-08H26.2222H5.77778ZM12.5387 9.92889C12.4764 10.053 12.4442 10.19 12.4444 10.3289V18.1191C12.4444 18.2707 12.4832 18.4198 12.5571 18.5521C12.6309 18.6845 12.7374 18.7958 12.8664 18.8754C12.9953 18.9551 13.1425 19.0004 13.294 19.0071C13.4454 19.0138 13.596 18.9817 13.7316 18.9138L21.5218 15.0204C21.6697 14.9467 21.7941 14.8332 21.8811 14.6927C21.9681 14.5522 22.0142 14.3902 22.0142 14.2249C22.0142 14.0596 21.9681 13.8976 21.8811 13.7571C21.7941 13.6166 21.6697 13.5031 21.5218 13.4293L13.7316 9.53422C13.5208 9.42861 13.2767 9.41105 13.053 9.4854C12.8293 9.55975 12.6443 9.71991 12.5387 9.93067V9.92889Z" />
</svg>
